<mxfile host="app.diagrams.net" modified="2020-07-10T06:57:52.902Z" agent="5.0 (Windows NT 10.0; Win64; x64) AppleWebKit/537.36 (KHTML, like Gecko) Chrome/83.0.4103.116 Safari/537.36" etag="FFbRFebL5cnfb0BXEPXu" version="13.4.0" type="github">
  <diagram id="UiZ92aOFfSZIfiMHlA4H" name="Page-1">
    <mxGraphModel dx="1038" dy="568" grid="1" gridSize="10" guides="1" tooltips="1" connect="1" arrows="1" fold="1" page="1" pageScale="1" pageWidth="850" pageHeight="1100" math="0" shadow="0">
      <root>
        <mxCell id="0" />
        <mxCell id="1" parent="0" />
        <mxCell id="dIMfR6t1zzbhHHMH2o8x-1" value="AGB change modelling&lt;br&gt;&lt;br&gt;Machine learning, Markov chain" style="rounded=0;whiteSpace=wrap;html=1;" parent="1" vertex="1">
          <mxGeometry x="360" y="290" width="130" height="70" as="geometry" />
        </mxCell>
        <mxCell id="dIMfR6t1zzbhHHMH2o8x-3" value="AGBmaps Global &lt;br&gt;(1991-2018)&lt;br&gt;&lt;br&gt;ERS WindSCAT,ASCAT&amp;nbsp;" style="rounded=1;whiteSpace=wrap;html=1;" parent="1" vertex="1">
          <mxGeometry x="120" y="100" width="140" height="60" as="geometry" />
        </mxCell>
        <mxCell id="dIMfR6t1zzbhHHMH2o8x-4" value="AGBmaps Global &lt;br&gt;(2000, 2008, 2010, 2017)&lt;br&gt;&lt;br&gt;Baccini, GEO, Glob, CCI" style="rounded=1;whiteSpace=wrap;html=1;" parent="1" vertex="1">
          <mxGeometry x="300" y="100" width="140" height="60" as="geometry" />
        </mxCell>
        <mxCell id="YI0aZgSimd2LB83yqrj3-1" value="AGB maps regional&lt;br&gt;&lt;br&gt;" style="rounded=1;whiteSpace=wrap;html=1;" vertex="1" parent="1">
          <mxGeometry x="330" y="220" width="140" height="60" as="geometry" />
        </mxCell>
      </root>
    </mxGraphModel>
  </diagram>
</mxfile>
